#tb 0: 1/44100
#media_type 0: audio
#codec_id 0: pcm_s16le
#sample_rate 0: 44100
#channel_layout_name 0: stereo
0,          0,          0,     4096,    16384, 0xd3bcd82f
0,       4096,       4096,     4096,    16384, 0x267de021
0,       8192,       8192,     4096,    16384, 0x49b1ede1
0,      12288,      12288,     4096,    16384, 0x89c9e5c7
0,      16384,      16384,     4096,    16384, 0x09a7ef11
0,      20480,      20480,     4096,    16384, 0xd0bbe7cb
0,      24576,      24576,     4096,    16384, 0x3f45d98f
0,      28672,      28672,     4096,    16384, 0xc2cee3a7
0,      32768,      32768,     4096,    16384, 0xcab9d86b
0,      36864,      36864,     4096,    16384, 0x267de021
0,      40960,      40960,     4096,    16384, 0x5014f593
0,      45056,      45056,     4096,    16384, 0x6670be6f
0,      49152,      49152,     4096,    16384, 0xdd6ef309
0,      53248,      53248,     4096,    16384, 0x23edd875
0,      57344,      57344,     4096,    16384, 0x57201482
0,      61440,      61440,     4096,    16384, 0xa345dc5f
0,      65536,      65536,     4096,    16384, 0x9129d101
0,      69632,      69632,     4096,    16384, 0x067bb785
0,      73728,      73728,     4096,    16384, 0xc020e627
0,      77824,      77824,     4096,    16384, 0xc90ae24b
0,      81920,      81920,     4096,    16384, 0x7a0b8b41
0,      86016,      86016,     4096,    16384, 0xee43839f
0,      90112,      90112,     4096,    16384, 0x7ebc540a
0,      94208,      94208,     4096,    16384, 0xa4ed7161
0,      98304,      98304,     4096,    16384, 0xa646c553
0,     102400,     102400,     4096,    16384, 0x8e053dee
0,     106496,     106496,     4096,    16384, 0xbcd1b9e1
0,     110592,     110592,     4096,    16384, 0xec941980
0,     114688,     114688,     4096,    16384, 0x3bfb8a94
0,     118784,     118784,     4096,    16384, 0x641c03e6
0,     122880,     122880,     4096,    16384, 0x1053f4fc
0,     126976,     126976,     4096,    16384, 0x06ac5032
0,     131072,     131072,     4096,    16384, 0x1ac29d2a
0,     135168,     135168,     4096,    16384, 0xf7f7d7b5
0,     139264,     139264,     4096,    16384, 0xc402febf
0,     143360,     143360,     4096,    16384, 0xd0ced176
0,     147456,     147456,     4096,    16384, 0xeb33f547
0,     151552,     151552,     4096,    16384, 0x6356e6d8
0,     155648,     155648,     4096,    16384, 0x1aebf4e6
0,     159744,     159744,     4096,    16384, 0x2ce1e48c
0,     163840,     163840,     4096,    16384, 0x0d21de12
0,     167936,     167936,     4096,    16384, 0x4f30eb6a
0,     172032,     172032,     4096,    16384, 0x9b07ed9b
0,     176128,     176128,     4096,    16384, 0xf4650f0f
0,     180224,     180224,     4096,    16384, 0xc049f76e
0,     184320,     184320,     4096,    16384, 0x54928d24
0,     188416,     188416,     4096,    16384, 0x1e88eb77
0,     192512,     192512,     4096,    16384, 0x2a8edfed
0,     196608,     196608,     4096,    16384, 0x6ccad68a
0,     200704,     200704,     4096,    16384, 0x44e3bc16
0,     204800,     204800,     4096,    16384, 0xd576d791
0,     208896,     208896,     4096,    16384, 0x9e9e13ca
0,     212992,     212992,     4096,    16384, 0xc049f76e
0,     217088,     217088,     4096,    16384, 0x54928d24
0,     221184,     221184,     4096,    16384, 0x1e88eb77
0,     225280,     225280,     4096,    16384, 0x2a8edfed
0,     229376,     229376,     4096,    16384, 0x6ccad68a
0,     233472,     233472,     4096,    16384, 0x44e3bc16
0,     237568,     237568,     4096,    16384, 0xd576d791
0,     241664,     241664,     4096,    16384, 0x9e9e13ca
0,     245760,     245760,     4096,    16384, 0xc049f76e
0,     249856,     249856,     4096,    16384, 0x54928d24
0,     253952,     253952,     4096,    16384, 0x1e88eb77
0,     258048,     258048,     4096,    16384, 0x2a8edfed
0,     262144,     262144,     2456,     9824, 0x41840883
